# xmcd
#
# Track frame offsets:
#	150
#	22774
#	48129
#	92696
#	125455
#	132997
#	158752
#	195247
#	223804
#	259431
#	287120
#
# Disc length: 4238 seconds
#
# Revision: 1
# Processed by: cddbd v1.5.2PL0 Copyright (c) Steve Scherf et al.
# Submitted via: audiograbber 1.83.01
#
DISCID=96108c0b
DTITLE=Mark Knopfler and Friends - Live in London 02
DYEAR=2002
DGENRE=Rock
TTITLE0=Walk of life
TTITLE1=What it is
TTITLE2=Romeo and Juliet
TTITLE3=Sultans of swing
TTITLE4=Ole ole ole
TTITLE5=Baloney again
TTITLE6=Why aye man
TTITLE7=Money for nothing
TTITLE8=Brothers in arms
TTITLE9=So far away
TTITLE10=Going home
EXTD=
EXTT0=
EXTT1=
EXTT2=
EXTT3=
EXTT4=
EXTT5=
EXTT6=
EXTT7=
EXTT8=
EXTT9=
EXTT10=
PLAYORDER=
